<svg fill="none" height="400" viewBox="0 0 401 400" width="401" xmlns="http://www.w3.org/2000/svg" xmlns:xlink="http://www.w3.org/1999/xlink"><linearGradient id="a" gradientUnits="userSpaceOnUse" x1="26.4815" x2="378.51" y1="267.041" y2="267.041"><stop offset="0" stop-color="#383738"/><stop offset=".054426" stop-color="#100f0f"/><stop offset=".533654" stop-color="#100f0f"/><stop offset=".651199" stop-color="#1a1b1b"/><stop offset=".687031" stop-color="#101010"/><stop offset=".983465" stop-color="#1b1b1b"/><stop offset="1" stop-color="#48494a"/></linearGradient><linearGradient id="b" gradientUnits="userSpaceOnUse" x1="378.511" x2="26.4822" y1="234.926" y2="234.926"><stop offset="0" stop-color="#1c1d1d"/><stop offset=".307296" stop-color="#3e3d3e"/><stop offset=".37856" stop-color="#a8a4a6"/><stop offset=".501382" stop-color="#717171"/><stop offset=".911206" stop-color="#5b5b5a"/><stop offset=".960289" stop-color="#9e9e9f"/><stop offset="1" stop-color="#4c4d4d"/></linearGradient><radialGradient id="c" cx="0" cy="0" gradientTransform="matrix(-44.72268136 -227.1349374 262.67260299 -51.72001833 209.234 324.207)" gradientUnits="userSpaceOnUse" r="1"><stop offset="0" stop-opacity=".8"/><stop offset="1" stop-opacity="0"/></radialGradient><path d="m378.495 207.634c0 7.135.787 12.419-8.911 22.989-13.105 14.533-74.963 85.613-94.621 107.28s-42.462 18.76-72.866 7.662c-30.405-11.098-137.9345-50.41-157.4378-57.654-15.6021-5.795-18.5909-19.891-18.1348-26.215v-23.801l18.9493-3.118c.6696 6.06 5.6815 12.431 15.7226 16.734 16.1375 6.916 122.5627 44.952 147.1517 54.173 24.588 9.221 43.03 3.458 55.709-11.91 12.678-15.368 70.694-81.452 84.91-99.126 3.161-3.931 5.161-7.52 6.127-10.805l23.401-3.848z" fill="url(#a)"/><path d="m125.221 121.419c20.256-21.424 41.29-29.2147 73.621-18.698 32.33 10.518 115.688 39.732 146.071 50.639s46.593 23.185 20.645 53.754c-28.435 33.499-66.609 78.295-84.137 97.382-24.151 28.045-47.912 23.76-87.253 9.737-39.342-14.023-109.4574-38.562-137.5032-49.469-22.2028-8.634-41.6329-22.086-22.2021-43.627 23.5013-26.098 74.5543-82.579 90.7583-99.718zm71.984-7.606c-20.363-6.915-37.652-9.221-54.557 8.836-13.524 14.446-68.1331 74.665-93.7469 102.968-6.9918 7.724-3.8415 19.979 12.295 26.894 16.1366 6.916 122.5619 44.952 147.1509 54.173 24.59 9.221 43.032 3.458 55.71-11.91 12.679-15.368 70.694-81.451 84.91-99.125 14.215-17.673 4.994-28.431-16.521-35.731-21.516-7.3-114.878-39.189-135.241-46.105z" fill="url(#b)"/><path d="m125.221 120.419c20.256-21.424 41.29-29.2147 73.621-18.698 32.33 10.518 115.688 39.732 146.071 50.639s46.593 23.185 20.645 53.754c-28.435 33.499-66.609 78.295-84.137 97.382-24.151 28.045-47.912 23.76-87.253 9.737-39.342-14.023-109.4574-38.562-137.5032-49.469-22.2028-8.634-41.6329-22.086-22.2021-43.627 23.5013-26.098 74.5543-82.579 90.7583-99.718zm71.984-7.606c-20.363-6.915-37.652-9.221-54.557 8.836-13.524 14.446-68.1331 74.665-93.7469 102.968-6.9918 7.724-3.8415 19.979 12.295 26.894 16.1366 6.916 122.5619 44.952 147.1509 54.173 24.59 9.221 43.032 3.458 55.71-11.91 12.679-15.368 70.694-81.451 84.91-99.125 14.215-17.673 4.994-28.431-16.521-35.731-21.516-7.3-114.878-39.189-135.241-46.105z" fill="#404141"/><path d="m125.221 120.419c20.256-21.424 41.29-29.2147 73.621-18.698 32.33 10.518 115.688 39.732 146.071 50.639s46.593 23.185 20.645 53.754c-28.435 33.499-66.609 78.295-84.137 97.382-24.151 28.045-47.912 23.76-87.253 9.737-39.342-14.023-109.4574-38.562-137.5032-49.469-22.2028-8.634-41.6329-22.086-22.2021-43.627 23.5013-26.098 74.5543-82.579 90.7583-99.718zm71.984-7.606c-20.363-6.915-37.652-9.221-54.557 8.836-13.524 14.446-68.1331 74.665-93.7469 102.968-6.9918 7.724-3.8415 19.979 12.295 26.894 16.1366 6.916 122.5619 44.952 147.1509 54.173 24.59 9.221 43.032 3.458 55.71-11.91 12.679-15.368 70.694-81.451 84.91-99.125 14.215-17.673 4.994-28.431-16.521-35.731-21.516-7.3-114.878-39.189-135.241-46.105z" fill="url(#c)"/><path d="m142.648 121.649c-13.524 14.447-68.1326 74.664-93.7464 102.968-6.9921 7.723-3.8421 19.978 12.2946 26.894s122.5618 44.952 147.1508 54.173 43.031 3.458 55.71-11.91 70.694-81.452 84.91-99.125c14.215-17.674 4.994-28.432-16.521-35.732-21.516-7.3-114.878-39.189-135.241-46.104-20.363-6.916-37.652-9.221-54.557 8.836z" fill="#000"/></svg>