<svg fill="none" height="400" viewBox="0 0 401 400" width="401" xmlns="http://www.w3.org/2000/svg" xmlns:xlink="http://www.w3.org/1999/xlink"><linearGradient id="a" gradientUnits="userSpaceOnUse" x1="26.4775" x2="378.506" y1="267.191" y2="267.191"><stop offset="0" stop-color="#383738"/><stop offset=".054426" stop-color="#100f0f"/><stop offset=".533654" stop-color="#100f0f"/><stop offset=".651199" stop-color="#1a1b1b"/><stop offset=".687031" stop-color="#101010"/><stop offset=".983465" stop-color="#1b1b1b"/><stop offset="1" stop-color="#48494a"/></linearGradient><linearGradient id="b" gradientUnits="userSpaceOnUse" x1="378.506" x2="26.3029" y1="238.275" y2="238.275"><stop offset="0" stop-color="#1c1d1d"/><stop offset=".307296" stop-color="#3e3d3e"/><stop offset=".37856" stop-color="#a8a4a6"/><stop offset=".501382" stop-color="#717171"/><stop offset=".911206" stop-color="#5b5b5a"/><stop offset=".960289" stop-color="#9e9e9f"/><stop offset="1" stop-color="#4c4d4d"/></linearGradient><radialGradient id="c" cx="0" cy="0" gradientTransform="matrix(-44.76930571 -220.65920169 262.34488108 -53.22686792 209.05 324.204)" gradientUnits="userSpaceOnUse" r="1"><stop offset="0" stop-opacity=".8"/><stop offset="1" stop-opacity="0"/></radialGradient><path d="m378.491 207.632c0 7.134.786 12.418-8.912 22.988-13.105 14.533-74.963 85.613-94.621 107.28s-42.462 18.761-72.866 7.663c-30.405-11.098-137.9326-50.411-157.4368-57.655-15.6021-5.795-18.5909-19.891-18.1348-26.215v-23.801l18.9512-3.101c.677 6.055 5.688 12.418 15.7197 16.717 16.1367 6.916 122.5617 44.952 147.1517 54.173 24.589 9.221 43.031 3.458 55.71-11.91 12.678-15.368 70.693-81.452 84.909-99.126 3.065-3.811 5.038-7.3 6.036-10.503l23.493-3.843z" fill="url(#a)"/><path d="m378.242 178.109c1.329 7.46-2.302 16.766-12.688 29.002-28.436 33.499-66.609 78.295-84.138 97.382-24.15 28.045-47.911 23.76-87.253 9.737s-109.4571-38.562-137.5028-49.469c-15.54-6.043-29.7212-14.447-30.1709-26.332l18.9278-3.246c.4001 6.234 5.4064 12.882 15.7744 17.325 16.1366 6.916 122.5615 44.952 147.1515 54.173 24.589 9.221 43.031 3.458 55.71-11.91s70.693-81.451 84.909-99.125c4.107-5.105 6.253-9.634 6.717-13.669z" fill="url(#b)"/><path d="m378.157 176.67c1.554 7.533-2.011 16.963-12.603 29.441-28.435 33.499-66.609 78.294-84.138 97.381-24.15 28.046-47.911 23.761-87.253 9.738s-109.4571-38.563-137.5028-49.47c-15.7371-6.12-30.0802-14.66-30.1806-26.785l18.9169-3.244c.1816 6.363 5.1759 13.226 15.795 17.777 16.1368 6.916 122.5615 44.952 147.1515 54.173 24.589 9.221 43.031 3.458 55.71-11.91s70.693-81.452 84.909-99.126c4.264-5.301 6.417-9.98 6.765-14.13z" fill="#404141"/><path d="m378.157 176.67c1.554 7.533-2.011 16.963-12.603 29.441-28.435 33.499-66.609 78.294-84.138 97.381-24.15 28.046-47.911 23.761-87.253 9.738s-109.4571-38.563-137.5028-49.47c-15.7371-6.12-30.0802-14.66-30.1806-26.785l18.9169-3.244c.1816 6.363 5.1759 13.226 15.795 17.777 16.1368 6.916 122.5615 44.952 147.1515 54.173 24.589 9.221 43.031 3.458 55.71-11.91s70.693-81.452 84.909-99.126c4.264-5.301 6.417-9.98 6.765-14.13z" fill="url(#c)"/></svg>