<svg fill="none" height="400" viewBox="0 0 401 400" width="401" xmlns="http://www.w3.org/2000/svg"><path d="m165.675 45.467c9.351-.8995 19.441 1.689 31.607 5.6562 35.144 11.46 70.65 23.2955 110.36 35.5137 4.57 1.4062 7.761 3.2425 9.798 5.5117 1.071 1.1924 1.801 2.4841 2.251 3.8525.047.0227.086.0462.117.0723 4.125 3.5689 7.677 12.4686 8.938 16.4726 4.813 14.871 14.921 46.121 16.847 52.161 2.236 7.015 6.25 13.139 1.844 20.578-.119.293-.25.588-.395.884l-.055-.164c-.219.333-.453.67-.707 1.008-6.188 8.236-52.601 59.711-72.885 83.732-20.283 24.022-27.769 36.617-63.524 26.665-35.754-9.951-121.4808-42.716-141.7207-52.745-18.4107-9.122-17.1898-14.757-14.4395-25.052 2.2005-8.236 16.273-59.253 23.0342-83.732.0937-.017.1874-.035.2813-.053.2314-.757.5119-1.513.8291-2.269.7816-2.799 2.3149-5.657 4.0576-8.658 5.5713-9.595 19.241-23.998 25.354-29.9858l5.634-6.1836c4.327-4.9042 11.332-12.8638 25.671-28.1748 9.135-9.7537 17.68-14.1834 27.103-15.0898z" fill="#90f"/></svg>